<?xml version="1.0" standalone="no"?>
<!DOCTYPE svg PUBLIC "-//W3C//DTD SVG 20010904//EN"
 "http://www.w3.org/TR/2001/REC-SVG-20010904/DTD/svg10.dtd">
<svg version="1.0" xmlns="http://www.w3.org/2000/svg"
 width="363.000000pt" height="333.000000pt" viewBox="0 0 363.000000 333.000000"
 preserveAspectRatio="xMidYMid meet">

<g transform="translate(0.000000,333.000000) scale(0.100000,-0.100000)"
fill="#000000" stroke="none">
<path d="M1260 3319 c-120 -50 -134 -213 -24 -276 94 -54 209 0 229 108 9 48
-21 118 -63 147 -36 26 -106 36 -142 21z"/>
<path d="M815 3051 c-63 -28 -103 -81 -120 -158 l-7 -33 51 0 c48 0 52 2 64
33 21 49 52 72 99 72 33 0 45 -6 69 -33 16 -18 29 -41 29 -52 0 -17 7 -20 50
-20 49 0 50 1 50 30 0 37 -29 97 -62 127 -56 53 -151 67 -223 34z"/>
<path d="M1616 3044 c-8 -32 -52 -74 -77 -74 -16 0 -19 -8 -19 -55 l0 -54 33
6 c89 17 167 99 167 178 0 23 -3 25 -49 25 -44 0 -49 -2 -55 -26z"/>
<path d="M1880 2970 l0 -50 50 0 50 0 0 50 0 50 -50 0 -50 0 0 -50z"/>
<path d="M1160 2760 l0 -50 50 0 50 0 0 50 0 50 -50 0 -50 0 0 -50z"/>
<path d="M1943 2735 c-72 -36 -104 -89 -111 -177 -6 -91 8 -108 90 -108 l59 0
-3 -42 c-2 -33 -8 -45 -25 -53 -20 -8 -23 -17 -23 -63 0 -52 0 -52 28 -46 75
18 132 90 132 167 l0 37 58 0 c76 0 92 16 92 92 0 85 -40 154 -109 190 -68 36
-121 36 -188 3z m154 -100 c11 -8 26 -28 31 -45 l11 -30 -104 0 -104 0 11 30
c14 41 44 60 93 60 22 0 50 -7 62 -15z"/>
<path d="M525 2698 c-173 -61 -186 -303 -21 -382 40 -19 107 -21 124 -4 8 8
12 65 12 188 0 159 -2 179 -18 193 -21 19 -53 20 -97 5z"/>
<path d="M1446 2687 c-130 -73 -91 -268 56 -284 166 -19 235 206 88 284 -54
29 -94 29 -144 0z"/>
<path d="M904 2650 c-78 -18 -134 -76 -152 -158 l-10 -42 54 0 c48 0 54 2 54
21 0 27 52 79 79 79 19 0 21 6 21 55 0 30 -3 55 -7 54 -5 -1 -22 -4 -39 -9z"/>
<path d="M1062 2408 c19 -87 74 -139 171 -162 27 -6 27 -6 27 46 -1 52 -1 53
-43 73 -31 15 -44 28 -51 53 -9 31 -11 32 -61 32 l-53 0 10 -42z"/>
<path d="M1670 2295 l0 -55 55 0 55 0 0 55 0 55 -55 0 -55 0 0 -55z"/>
<path d="M2614 2339 c-44 -13 -74 -46 -138 -154 -56 -93 -58 -95 -94 -95 -29
0 -39 5 -47 23 l-10 22 -1007 3 c-929 2 -1008 1 -1023 -15 -15 -14 -16 -38
-13 -197 3 -153 7 -189 24 -232 49 -122 150 -217 271 -254 62 -19 92 -20 737
-20 715 0 708 0 805 50 92 47 173 145 207 253 l18 57 112 0 c134 0 121 -9 214
149 l65 111 314 0 c303 0 315 1 352 22 42 24 79 85 79 131 0 45 -25 93 -66
123 l-37 29 -366 2 c-201 1 -380 -2 -397 -8z m-2084 -418 c0 -71 5 -120 14
-143 31 -74 107 -116 182 -102 51 9 110 69 119 119 14 77 48 104 87 68 15 -13
18 -31 18 -97 0 -65 5 -89 23 -121 51 -90 183 -101 257 -21 25 27 25 31 28
217 l3 189 485 0 484 0 0 -129 c0 -105 -4 -137 -19 -173 -39 -89 -107 -153
-194 -183 -40 -13 -128 -15 -719 -13 l-673 3 -58 30 c-69 35 -115 79 -148 143
-21 42 -24 63 -27 185 l-4 137 71 0 71 0 0 -109z m620 -55 c0 -182 -5 -199
-58 -180 -26 9 -27 13 -32 99 -6 106 -26 149 -86 182 -95 54 -212 -3 -230
-113 -8 -51 -13 -59 -41 -68 -15 -5 -28 -1 -42 13 -19 19 -21 33 -21 126 l0
105 255 0 255 0 0 -164z"/>
<path d="M2833 1665 c-23 -16 -23 -20 -23 -210 l0 -195 -39 -20 c-58 -29 -99
-84 -112 -151 l-11 -56 -40 14 c-88 30 -197 -17 -239 -103 -23 -48 -24 -57
-27 -326 l-3 -278 -50 0 -49 0 0 84 c0 106 -8 116 -91 116 l-59 0 0 110 c0
152 2 150 -175 150 l-135 0 0 -50 0 -50 100 0 100 0 0 -80 0 -80 -310 0 -310
0 0 130 0 130 -50 0 -50 0 0 -130 0 -130 -310 0 -310 0 0 80 0 80 105 0 105 0
0 50 0 50 -139 0 c-114 0 -143 -3 -155 -16 -13 -12 -16 -39 -16 -130 l0 -114
-64 0 c-85 0 -96 -14 -96 -122 l0 -78 -50 0 -50 0 0 -55 0 -55 1551 0 1550 0
-3 53 -3 52 -52 3 -53 3 0 385 c0 335 -2 389 -16 417 -23 45 -53 76 -96 98
l-38 19 0 188 c0 147 -3 192 -14 208 -13 17 -29 19 -133 22 -96 3 -122 0 -140
-13z m187 -295 l5 -195 49 -15 c63 -20 96 -58 96 -111 l0 -39 -135 0 c-189 0
-175 23 -175 -289 0 -214 2 -252 16 -265 12 -13 41 -16 155 -16 l139 0 0 -50
0 -50 -205 0 -205 0 0 370 c0 265 3 376 12 395 13 29 55 55 87 55 47 0 51 19
51 221 l0 190 53 -3 52 -3 5 -195z m-399 -449 c16 -16 29 -39 29 -50 0 -20 -5
-21 -101 -21 l-101 0 6 28 c17 73 112 97 167 43z m549 -201 l0 -180 -100 0
-100 0 0 180 0 180 100 0 100 0 0 -180z m-520 -175 l0 -205 -100 0 -100 0 0
205 0 205 100 0 100 0 0 -205z m-512 -157 l3 -48 -825 0 -826 0 0 50 0 50 823
-2 822 -3 3 -47z"/>
<path d="M729 1253 c-70 -94 -89 -133 -89 -186 0 -79 42 -136 114 -156 110
-30 221 68 201 177 -3 20 -34 79 -67 130 -53 80 -64 92 -89 92 -23 0 -36 -11
-70 -57z"/>
<path d="M1221 1220 c-33 -50 -63 -107 -67 -127 -21 -110 87 -212 195 -183 79
21 121 76 121 159 0 44 -7 60 -62 143 -56 82 -67 93 -95 96 -31 3 -36 -1 -92
-88z"/>
<path d="M1788 1293 c-9 -10 -39 -53 -67 -97 -45 -69 -51 -85 -51 -131 0 -165
217 -221 298 -77 41 73 31 115 -60 250 -41 61 -53 72 -77 72 -15 0 -35 -8 -43
-17z"/>
</g>
</svg>
